# xmcd
#
# Track frame offsets: 
#        150
#        14195
#        28328
#        49325
#        66248
#        74305
#        82706
#        106126
#        122508
#        140333
#        152977
#        164499
#        181334
#
# Disc length: 2617 seconds
#
# Revision: 1
# Processed by: cddbd v1.5.2PL0 Copyright (c) Steve Scherf et al.
# Submitted via: ExactAudioCopyFreeDBPlugin 1.0
#
DISCID=b40a370d
DTITLE=Blue Highway - Lonesome Pine
DYEAR=2006
DGENRE=Bluegrass
TTITLE0=In The Gravel Yard
TTITLE1=Lonesome Pine
TTITLE2=He Walked All The Way Home
TTITLE3=Blue Ridge Mountain Girl
TTITLE4=Some Day
TTITLE5=Cold Frosty Morn
TTITLE6=Before The Cold Winds Blows
TTITLE7=The Rounder
TTITLE8=Between The Rows
TTITLE9=Flannery's Dream
TTITLE10=Last Dollar Blues
TTITLE11=Two Coats
TTITLE12=It's A Long, Long Road
EXTD=
EXTT0=
EXTT1=
EXTT2=
EXTT3=
EXTT4=
EXTT5=
EXTT6=
EXTT7=
EXTT8=
EXTT9=
EXTT10=
EXTT11=
EXTT12=
PLAYORDER=
